
<svg xmlns="http://www.w3.org/2000/svg" viewBox="0 0 189.4 183.1">
  <path class="st0" d="M40.4 133.1h10.5v10.5H40.4zm0-23.1h10.5v10.5H40.4zm0-23h10.5v10.5H40.4zm0-23h10.5v10.5H40.4zm98 66.5h10.5V141h-10.5zm0-26h10.5V115h-10.5zm0-25h10.5V90h-10.5z"/>
  <path class="st1" d="M102.2 123.1h12.6v12.6h-12.6zm-27 0h12.6v12.6H75.2zm27-26h12.6v12.6h-12.6zm-27 0h12.6v12.6H75.2zm27-26h12.6v12.6h-12.6zm-27 0h12.6v12.6H75.2zm27-25.1h12.6v12.6h-12.6zm-27 0h12.6v12.6H75.2z"/>
  <path class="st1" d="M118.7 27.1c6.1 0 11 4.9 11 11v115.7h-70V37.1c0-5.5 4.5-10 10-10h49m0-5h-49c-8.3 0-15 6.7-15 15v121.7h80V38.1c0-8.9-7.1-16-16-16z"/>
  <path class="st0" d="M163.7 153.5V68h4.6v-8.5h-30V68h18v85.5H32.9V55h17.3v-8.5h-30V55h6v98.5h-14v7.5h165v-7.5z"/>
</svg>