<?xml version="1.0" encoding="UTF-8"?>
<svg width="43px" height="41px" viewBox="0 0 43 41" version="1.1" xmlns="http://www.w3.org/2000/svg" xmlns:xlink="http://www.w3.org/1999/xlink">
    <!-- Generator: Sketch 48.1 (47250) - http://www.bohemiancoding.com/sketch -->
    <title>Shape Copy</title>
    <desc>Created with Sketch.</desc>
    <defs></defs>
    <g id="Page-1" stroke="none" stroke-width="1" fill="none" fill-rule="evenodd">
        <path d="M37,3 L41,3 L41,37 L37,37 L37,3 Z M29.0888771,4.26178638 L28.4924366,4.44408454 C27.7457337,4.67626528 26.8681273,4.35293546 26.5662196,3.73756579 C26.4214883,3.43963074 26.4145744,3.1104057 26.5473216,2.8092963 C26.7012714,2.46102518 27.0285301,2.1884849 27.443826,2.06105758 L34.1692225,0 L34.9878302,5.89566767 C35.033923,6.19587011 34.9481904,6.50242125 34.7458431,6.75636894 C34.498325,7.06836181 34.1005443,7.27061301 33.6543663,7.31233298 C33.6008987,7.31777472 33.540978,7.32049559 33.4833621,7.32049559 C32.7223704,7.32049559 32.0761497,6.84343672 31.9802767,6.21219532 L31.876568,5.32020407 C24.1039436,15.9084622 6.20565882,27.2567495 5.42899559,27.7455988 C5.16534493,27.9115718 4.85007036,28 4.51635868,28 C4.06649321,28 3.64336155,27.8367479 3.35620358,27.5506033 C3.09209198,27.2889465 2.96856335,26.9551867 3.00682035,26.6123573 C3.04692107,26.256377 3.26401803,25.9289659 3.60326084,25.7167382 C3.78532729,25.6015548 21.5130688,14.3267309 29.0888771,4.26178638 Z M34,11 L34,37 L30,37 L30,11 L34,11 Z M26,18 L26,37 L22,37 L22,18 L26,18 Z M19,27 L19,37 L15,37 L15,27 L19,27 Z M11,31 L11,37 L7,37 L7,31 L11,31 Z M42.9995458,41 L0,41 L0,38 L43,38 L42.9995458,41 Z" id="Shape-Copy" fill="#183547" fill-rule="nonzero"></path>
    </g>
</svg>