<?xml version="1.0" encoding="UTF-8"?>
<svg width="50px" height="42px" viewBox="0 0 50 42" version="1.1" xmlns="http://www.w3.org/2000/svg" xmlns:xlink="http://www.w3.org/1999/xlink">
    <!-- Generator: Sketch 48.1 (47250) - http://www.bohemiancoding.com/sketch -->
    <title>currency-value</title>
    <desc>Created with Sketch.</desc>
    <defs></defs>
    <g id="Page-1" stroke="none" stroke-width="1" fill="none" fill-rule="evenodd">
        <g id="currency-value" fill="#183547" fill-rule="nonzero">
            <path d="M47.9270574,31.315902 L11.9496259,31.315902 L11.9496259,1.9827147 C11.9496259,0.938282421 11.077182,0.0915043228 10.0012469,0.0915043228 C8.92543641,0.0915043228 8.05311721,0.938282421 8.05311721,1.9827147 L8.05311721,31.3160231 L1.94825436,31.3160231 C0.87244389,31.315902 0,32.1626801 0,33.2071124 C0,34.2514236 0.87244389,35.0983228 1.94825436,35.0983228 L8.05311721,35.0983228 L8.05311721,40.0172853 C8.05311721,41.0619597 8.92543641,41.9084957 10.0012469,41.9084957 C11.077182,41.9084957 11.9496259,41.0619597 11.9496259,40.0172853 L11.9496259,35.0983228 L47.9270574,35.0983228 C49.0027431,35.0983228 49.8753117,34.2514236 49.8753117,33.2071124 C49.8753117,32.1626801 49.0027431,31.315902 47.9270574,31.315902 Z" id="Shape"></path>
            <path d="M16.5835411,27.5476427 L21.9451372,27.5476427 C22.2895262,27.5476427 22.5685786,27.2766398 22.5685786,26.9424553 L22.5685786,14.8876081 C22.5685786,14.5534236 22.2895262,14.2824207 21.9451372,14.2824207 L16.5835411,14.2824207 C16.2391521,14.2824207 15.9600998,14.5534236 15.9600998,14.8876081 L15.9600998,26.9424553 C15.9600998,27.2766398 16.2391521,27.5476427 16.5835411,27.5476427 Z" id="Shape"></path>
            <path d="M25.3117207,27.5476427 L30.6733167,27.5476427 C31.0177057,27.5476427 31.2967581,27.2766398 31.2967581,26.9424553 L31.2967581,21.6341153 C30.7694514,21.2929107 30.273192,20.8986916 29.8148379,20.453879 C27.9961347,18.6884265 26.9946384,16.341147 26.9946384,13.8443862 C26.9946384,12.1875043 27.4381546,10.5977983 28.2662095,9.1989683 L25.3117207,9.1989683 C24.9673317,9.1989683 24.6882793,9.46997118 24.6882793,9.80415562 L24.6882793,26.9425764 C24.6882793,27.2766398 24.9673317,27.5476427 25.3117207,27.5476427 Z" id="Shape"></path>
            <path d="M33.4164589,22.6620865 L33.4164589,26.9424553 C33.4164589,27.2766398 33.6955112,27.5476427 34.0399002,27.5476427 L39.4014963,27.5476427 C39.7458853,27.5476427 40.0249377,27.2766398 40.0249377,26.9424553 L40.0249377,22.5924899 C38.9482544,22.9874352 37.8006234,23.1918674 36.6241895,23.1918674 C35.5142145,23.1917464 34.4332918,23.0098271 33.4164589,22.6620865 Z" id="Shape"></path>
            <path d="M36.6241895,21.4363401 C38.253616,21.4363401 39.8058603,20.9538847 41.1113466,20.0620807 L47.6846633,26.4429337 C47.9496259,26.7000173 48.2967581,26.828438 48.6436409,26.828438 C48.9907731,26.828438 49.3379052,26.6998963 49.6027431,26.4429337 C50.1322943,25.9287666 50.1322943,25.0950605 49.6027431,24.5810144 L43.0293017,18.2001614 C43.9481297,16.9326571 44.4448878,15.4259827 44.4448878,13.8441441 C44.4448878,11.8162824 43.6315461,9.90970029 42.1542394,8.47576945 C40.6769327,7.04171758 38.7129676,6.25206916 36.6239401,6.25206916 C34.534788,6.25206916 32.5708229,7.04183862 31.0935162,8.47576945 C29.6164589,9.90982133 28.8029925,11.8164035 28.8029925,13.8442651 C28.8029925,15.8721268 29.6164589,17.7787089 31.0936409,19.2125187 C32.5710723,20.6466916 34.5350374,21.4363401 36.6241895,21.4363401 Z M32.69202,10.0274697 C33.7425187,9.00797118 35.1387781,8.44647839 36.6241895,8.44647839 C38.1093516,8.44647839 39.5058603,9.00797118 40.555985,10.0274697 C41.6064838,11.0470893 42.1846633,12.4025879 42.1846633,13.8443862 C42.1846633,15.2861844 41.6064838,16.641683 40.555985,17.6611816 C39.5058603,18.6808012 38.1093516,19.2422939 36.6241895,19.2422939 C35.1387781,19.2422939 33.7425187,18.6808012 32.69202,17.6611816 C31.6418953,16.641683 31.0634663,15.2860634 31.0634663,13.8443862 C31.0634663,12.4024669 31.6418953,11.0470893 32.69202,10.0274697 Z" id="Shape"></path>
            <path d="M36.0806733,16.3399366 L36.0806733,17.3692392 C36.0806733,17.4780519 36.1716958,17.5662882 36.2837905,17.5662882 L37.017581,17.5662882 C37.1296758,17.5662882 37.2205736,17.4780519 37.2205736,17.3692392 L37.2205736,16.3728588 C38.3630923,16.2359654 39.0713217,15.5896254 39.0713217,14.6808761 C39.0713217,13.4772795 37.9998753,13.1795274 37.1390274,12.9402363 C36.4724439,12.754928 36.0677057,12.6179135 36.0677057,12.2771931 C36.0677057,12.0427435 36.2831671,11.9082709 36.6588529,11.9082709 C37.0775561,11.9082709 37.740399,12.1044726 38.30798,12.3966571 C38.3568579,12.4218329 38.4138404,12.4267954 38.4664589,12.4097291 C38.5188279,12.3930259 38.5619701,12.3563516 38.5860349,12.3080576 L38.9856608,11.5030375 C39.0316708,11.4103228 38.996384,11.2988473 38.9046135,11.2471643 C38.4286783,10.9787032 37.8316708,10.7944841 37.2206983,10.7269452 L37.2206983,9.7937464 C37.2206983,9.68493372 37.1299252,9.59669741 37.0177057,9.59669741 L36.2839152,9.59669741 C36.1718204,9.59669741 36.080798,9.68493372 36.080798,9.7937464 L36.080798,10.7685821 C35.0794264,10.9627262 34.482419,11.5722709 34.482419,12.4033141 C34.482419,13.5733833 35.5406484,13.8547954 36.3912718,14.0808934 C37.0723192,14.2620865 37.4857855,14.3976484 37.4857855,14.7519251 C37.4857855,15.1416657 37.0442643,15.1997637 36.7810474,15.1997637 C36.2319202,15.1997637 35.4608479,14.9139942 34.9062344,14.5047666 C34.8581047,14.4693026 34.7962594,14.4564726 34.7376559,14.4696657 C34.678803,14.4828588 34.6291771,14.5207435 34.601995,14.5730317 L34.1985037,15.3506974 C34.1544888,15.4355447 34.1791771,15.5386686 34.2569825,15.5961614 C34.7638404,15.9704092 35.4105985,16.2340288 36.0806733,16.3399366 Z" id="Shape"></path>
        </g>
    </g>
</svg>