<?xml version="1.0" encoding="UTF-8"?>
<svg width="50px" height="50px" viewBox="0 0 50 50" version="1.1" xmlns="http://www.w3.org/2000/svg" xmlns:xlink="http://www.w3.org/1999/xlink">
    <!-- Generator: Sketch 48.1 (47250) - http://www.bohemiancoding.com/sketch -->
    <title>bitcoin-not-accepted-symbol-with-a-slash</title>
    <desc>Created with Sketch.</desc>
    <defs></defs>
    <g id="BIG_final" stroke="none" stroke-width="1" fill="none" fill-rule="evenodd" transform="translate(-117.000000, -1432.000000)">
        <g id="bitcoin-not-accepted-symbol-with-a-slash" transform="translate(117.000000, 1432.000000)" fill="#948171" fill-rule="nonzero">
            <path d="M42.0027027,7.20675676 C37.3581081,2.56216216 31.1756757,0 24.6054054,0 C18.0337838,0 11.8540541,2.56081081 7.20810811,7.20675676 C2.56216216,11.8527027 0,18.0324324 0,24.6054054 C0,31.1797297 2.56216216,37.3581081 7.20810811,42.0040541 C11.8540541,46.65 18.0337838,49.2094595 24.6054054,49.2094595 C31.1756757,49.2094595 37.3581081,46.65 42.0027027,42.0040541 C46.6472973,37.3581081 49.2108108,31.1756757 49.2108108,24.6054054 C49.2108108,18.0351351 46.6486486,11.8540541 42.0027027,7.20675676 Z M2.7027027,24.6054054 C2.7027027,18.7554054 4.98243243,13.2554054 9.11891892,9.11891892 C13.2554054,4.98243243 18.7554054,2.70405405 24.6054054,2.70405405 C30.0013514,2.70405405 35.0851351,4.66351351 39.0918919,8.21081081 L38.0554054,9.24459459 C34.327027,5.97162162 29.6108108,4.16621622 24.6054054,4.16621622 C19.1459459,4.16621622 14.0135135,6.29189189 10.1554054,10.1527027 C6.29324324,14.0148649 4.16486486,19.1459459 4.16486486,24.6054054 C4.16486486,29.6121622 5.97162162,34.327027 9.24459459,38.0581081 L8.20945946,39.0905405 C4.66216216,35.0864865 2.7027027,30.0040541 2.7027027,24.6054054 Z M27.6783784,26.0986486 C28.2878378,26.3337838 28.7418919,26.6783784 29.0540541,27.122973 C29.3581081,27.5810811 29.5108108,28.1310811 29.5108108,28.7824324 C29.5108108,29.55 29.2918919,30.2121622 28.8635135,30.7567568 C28.4364865,31.3054054 27.9108108,31.6689189 27.2959459,31.8405405 C26.6824324,32.0148649 25.9081081,32.1 24.972973,32.1 L23.3662162,32.1 C22.8310811,32.1 22.5027027,32.0716216 22.3837838,32.0148649 C22.2594595,31.9540541 22.1743243,31.8513514 22.122973,31.7054054 C22.0797297,31.5891892 22.0540541,31.1959459 22.0432432,30.522973 L22.0432432,29.0851351 L25.3608108,25.7648649 C26.372973,25.7878378 27.1527027,25.8972973 27.6783784,26.0986486 Z M24.4554054,22.5175676 L22.0432432,22.5175676 L22.0432432,17.1472973 L24.4554054,17.1472973 C25.8675676,17.1472973 26.8486486,17.2324324 27.3905405,17.4108108 C27.9391892,17.5824324 28.3621622,17.8743243 28.6486486,18.2878378 C28.7027027,18.3635135 28.7256757,18.4554054 28.7675676,18.5364865 L24.7972973,22.5094595 C24.6797297,22.5108108 24.577027,22.5175676 24.4554054,22.5175676 Z M32.3148649,14.9837838 C31.9283784,14.7081081 31.4986486,14.4648649 31.0108108,14.2662162 C30.5851351,14.0891892 30.0810811,13.9608108 29.5310811,13.8554054 L29.5310811,9.96756757 L25.8013514,9.96756757 L25.8013514,13.5932432 L23.4027027,13.5932432 L23.4027027,9.96756757 L19.6756757,9.96756757 L19.6756757,13.5932432 L13.9864865,13.5932432 L13.9864865,16.6391892 L14.8581081,16.6391892 C15.4364865,16.6391892 15.8256757,16.6945946 16.0297297,16.8 C16.2378378,16.9 16.3824324,17.0459459 16.4648649,17.2256757 C16.55,17.4040541 16.5891892,17.8216216 16.5891892,18.4702703 L16.5891892,30.7094595 L14.7256757,32.572973 L13.9864865,32.572973 L13.9864865,33.3121622 L10.1972973,37.1013514 C7.17972973,33.6324324 5.51351351,29.25 5.51351351,24.6054054 C5.51351351,19.5067568 7.5,14.7135135 11.1067568,11.1081081 C14.7121622,7.5027027 19.5054054,5.51756757 24.6027027,5.51756757 C29.2486486,5.51756757 33.627027,7.18108108 37.0972973,10.2 L32.3148649,14.9837838 Z M15.5054054,35.6162162 L19.6783784,35.6162162 L19.6783784,39.2445946 L23.4081081,39.2445946 L23.4081081,35.6162162 L25.5324324,35.6162162 C25.622973,35.6162162 25.7121622,35.6135135 25.8081081,35.6135135 L25.8081081,39.2445946 L29.5351351,39.2445946 L29.5351351,35.3040541 C30.1608108,35.1851351 30.7121622,35.0324324 31.1837838,34.8472973 C32.472973,34.3310811 33.4648649,33.5810811 34.1702703,32.5932432 C34.8743243,31.6121622 35.2256757,30.5364865 35.2256757,29.3689189 C35.2256757,28.3891892 34.9932432,27.5027027 34.5310811,26.7081081 C34.0675676,25.9081081 33.4405405,25.2905405 32.6527027,24.8527027 C32.1067568,24.5351351 31.3148649,24.2432432 30.2837838,23.9824324 C31.2432432,23.6540541 32.0148649,23.2445946 32.6040541,22.7405405 C33.1905405,22.2405405 33.6418919,21.6662162 33.9513514,21.0135135 C34.2608108,20.3608108 34.4162162,19.6689189 34.4162162,18.9445946 C34.4162162,18.2905405 34.277027,17.677027 34.0297297,17.0918919 L39.0135135,12.1081081 C42.0297297,15.5783784 43.6972973,19.9594595 43.6972973,24.6040541 C43.6972973,29.7027027 41.7108108,34.4959459 38.1027027,38.1013514 C34.4972973,41.7067568 29.7040541,43.6932432 24.6081081,43.6932432 C19.9635135,43.6932432 15.5837838,42.0297297 12.1135135,39.0108108 L15.5054054,35.6162162 Z M40.0918919,40.0932432 C35.9540541,44.2310811 30.4554054,46.5067568 24.6054054,46.5067568 C19.2094595,46.5067568 14.127027,44.5486486 10.1216216,41.0013514 L11.1554054,39.9689189 C14.8824324,43.2418919 19.6,45.0472973 24.6054054,45.0472973 C30.0648649,45.0472973 35.1972973,42.9216216 39.0540541,39.0594595 C42.9148649,35.2 45.0459459,30.0662162 45.0459459,24.6067568 C45.0459459,19.6013514 43.2391892,14.8837838 39.9662162,11.1554054 L41.0013514,10.1216216 C44.5486486,14.127027 46.5081081,19.2108108 46.5081081,24.6067568 C46.5081081,30.4581081 44.2283784,35.9567568 40.0918919,40.0932432 Z" id="Shape"></path>
        </g>
    </g>
</svg>