<?xml version="1.0" encoding="UTF-8"?>
<svg width="43px" height="48px" viewBox="0 0 43 48" version="1.1" xmlns="http://www.w3.org/2000/svg" xmlns:xlink="http://www.w3.org/1999/xlink">
    <!-- Generator: Sketch 48.1 (47250) - http://www.bohemiancoding.com/sketch -->
    <title>searching-data-in-database</title>
    <desc>Created with Sketch.</desc>
    <defs></defs>
    <g id="BIG_final" stroke="none" stroke-width="1" fill="none" fill-rule="evenodd" transform="translate(-726.000000, -1444.000000)">
        <g id="searching-data-in-database" transform="translate(726.000000, 1444.000000)" fill="#948171" fill-rule="nonzero">
            <path d="M16.0096963,20.6450861 C17.1499926,17.9313377 19.1420074,15.546596 21.8882741,13.9632318 C24.0045111,12.7419338 26.4192,12.0953642 28.8644667,12.0953642 C30.8953407,12.0953642 32.8676074,12.5597881 34.6637333,13.3767417 L34.6637333,6.89070199 C34.6640519,3.08535099 26.9348815,0 17.4041704,0 C7.87059259,0 0.142696296,3.08535099 0.142696296,6.89070199 L0.142696296,13.7826755 C0.138874074,17.4039735 7.1258963,20.3637616 16.0096963,20.6450861 Z M17.4003481,1.72164238 C26.8826444,1.72164238 32.9338593,4.78378808 32.9338593,6.8887947 C32.9338593,8.99761589 26.8826444,12.0569007 17.4003481,12.0569007 C7.91614074,12.0569007 1.86492593,8.99761589 1.86492593,6.8887947 C1.86492593,4.78378808 7.91614074,1.72164238 17.4003481,1.72164238 Z M0.136644444,24.1217483 L0.136644444,17.2297748 C0.136644444,20.7178808 6.63314815,23.5921589 15.0563704,24.048 C14.7209704,26.3399205 14.9573111,28.7205298 15.8128519,30.9774834 C7.02492593,30.6580132 0.138874074,27.7141192 0.136644444,24.1217483 Z M27.8464815,39.9356821 C24.9450963,40.8165298 21.3305481,41.3486623 17.4003481,41.3486623 C7.86677037,41.3486623 0.138874074,38.2633113 0.138874074,34.4557351 L0.138874074,27.5631258 C0.138874074,31.3722914 7.86485926,34.456053 17.4003481,34.456053 C17.508963,34.456053 17.6147111,34.4503311 17.7233259,34.4503311 C20.1348296,37.6285033 23.8337852,39.6257483 27.8464815,39.9356821 Z M39.2720593,20.061457 C35.9632889,14.3437351 28.6125185,12.3770066 22.8810963,15.6794702 C17.1519037,18.9816159 15.1815481,26.3167152 18.4880889,32.0344371 C21.7968593,37.7540662 29.1514519,39.7188874 34.8806444,36.4205563 C40.6142963,33.1203179 42.5808296,25.7807682 39.2720593,20.061457 Z M20.2096815,31.0432848 C17.4478074,26.2760265 19.0935926,20.1517351 23.8745556,17.3944371 C28.6555185,14.6409536 34.7917778,16.2805828 37.5536519,21.0529272 C40.3158444,25.8252715 38.6691037,31.9495629 33.8881407,34.7036821 C29.1052667,37.4622517 22.9706,35.8207152 20.2096815,31.0432848 Z M41.8711704,42.5489801 L36.7102148,45.5221192 L32.7360593,38.6565298 L37.8989259,35.6814834 L41.8711704,42.5489801 Z M41.3144,47.5428874 C39.8848889,48.3636556 38.0658296,47.8798411 37.2392741,46.4528742 L42.4043704,43.4797351 C43.2286963,44.9063841 42.7400889,46.7218013 41.3144,47.5428874 Z" id="Shape"></path>
        </g>
    </g>
</svg>