<?xml version="1.0" encoding="UTF-8"?>
<svg width="60px" height="41px" viewBox="0 0 60 41" version="1.1" xmlns="http://www.w3.org/2000/svg" xmlns:xlink="http://www.w3.org/1999/xlink">
    <!-- Generator: Sketch 48.1 (47250) - http://www.bohemiancoding.com/sketch -->
    <title>money</title>
    <desc>Created with Sketch.</desc>
    <defs></defs>
    <g id="BIG_final" stroke="none" stroke-width="1" fill="none" fill-rule="evenodd" transform="translate(-111.000000, -1290.000000)">
        <g id="money" transform="translate(111.000000, 1290.000000)" fill="#948171" fill-rule="nonzero">
            <path d="M33.1071429,30.2105263 C31.0714286,30.2105263 29.0357143,30.2105263 27,30.2105263 C21.5357143,35.7131579 24,33.2315789 22.7142857,34.5263158 L27.8571429,34.5263158 C31.7142857,34.5263158 34.7142857,34.5263158 37.3928571,34.5263158 L33.1071429,30.2105263 Z" id="Shape"></path>
            <path d="M0,0 L0,34.5263158 L20.5714286,34.5263158 C19.5,33.4473684 20.3571429,34.3105263 16.2857143,30.2105263 C14.4642857,30.2105263 12.6428571,30.2105263 10.7142857,30.2105263 C10.7142857,26.5421053 7.92857143,23.7368421 4.28571429,23.7368421 L4.28571429,10.7894737 C7.92857143,10.7894737 10.7142857,7.98421053 10.7142857,4.31578947 L49.2857143,4.31578947 C49.2857143,7.98421053 52.0714286,10.7894737 55.7142857,10.7894737 L55.7142857,23.7368421 C54.9642857,23.7368421 54.2142857,23.8447368 53.5714286,24.0605263 L53.5714286,28.0526316 L53.5714286,34.5263158 C55.5,34.5263158 57.5357143,34.5263158 60,34.5263158 L60,0 L0,0 Z" id="Shape"></path>
            <path d="M30,6.47368421 C25.6071429,6.47368421 21.9642857,11.4368421 21.9642857,17.3710526 C21.9642857,18.2342105 22.0714286,18.9894737 22.1785714,19.7447368 C24.9642857,16.9394737 24.2142857,17.6947368 25.8214286,16.0763158 C25.7142857,15.7526316 25.7142857,15.4289474 25.7142857,15.1052632 C25.7142857,12.7315789 27.6428571,10.7894737 30,10.7894737 C32.3571429,10.7894737 34.2857143,12.7315789 34.2857143,15.1052632 C34.2857143,15.4289474 34.2857143,15.7526316 34.1785714,15.9684211 L37.8214286,19.6368421 C37.9285714,18.8815789 38.0357143,18.1263158 38.0357143,17.3710526 C38.0357143,11.4368421 34.3928571,6.47368421 30,6.47368421 Z" id="Shape"></path>
            <ellipse id="Oval" cx="47.1428571" cy="17.2631579" rx="4.28571429" ry="4.31578947"></ellipse>
            <path d="M47.25,32.2605263 C42,26.8657895 35.4642857,20.2842105 30.1071429,14.8894737 C23.1428571,21.9026316 29.3571429,15.6447368 21.6428571,23.4131579 L10.9285714,12.6236842 L6.42857143,17.1552632 L21.6428571,32.4763158 C26.0357143,28.0526316 25.6071429,28.4842105 30.1071429,23.9526316 L42.75,36.7921053 L38.5714286,41 L51.4285714,41 L51.4285714,28.0526316 L47.25,32.2605263 Z" id="Shape"></path>
        </g>
    </g>
</svg>