<?xml version="1.0" encoding="UTF-8"?>
<svg width="55px" height="55px" viewBox="0 0 55 55" version="1.1" xmlns="http://www.w3.org/2000/svg" xmlns:xlink="http://www.w3.org/1999/xlink">
    <!-- Generator: Sketch 48.1 (47250) - http://www.bohemiancoding.com/sketch -->
    <title>bitcoin-not-accepted-symbol</title>
    <desc>Created with Sketch.</desc>
    <defs></defs>
    <g id="BIG_final" stroke="none" stroke-width="1" fill="none" fill-rule="evenodd" transform="translate(-720.000000, -1284.000000)">
        <g id="bitcoin-not-accepted-symbol" transform="translate(720.000000, 1284.000000)" fill="#948171" fill-rule="nonzero">
            <path d="M44.4628571,36.95 C44.4628571,29.7185714 40.0042857,23.5157143 33.6942857,20.9242857 L33.6942857,16.2328571 C33.6942857,15.3742857 33,14.68 32.1442857,14.68 L1.54857143,14.68 C0.691428571,14.68 0,15.3742857 0,16.2328571 L0,21.6542857 C0,22.5085714 0.692857143,23.2 1.54857143,23.2 L16.6471429,23.2 C15.88,23.7871429 15.1657143,24.4342857 14.5071429,25.1371429 L1.54857143,25.1371429 C0.691428571,25.1371429 0,25.83 0,26.6842857 L0,32.1071429 C0,32.9657143 0.692857143,33.6557143 1.54857143,33.6557143 L10.1428571,33.6557143 C10.02,34.2885714 9.94,34.9357143 9.88857143,35.5914286 L1.54857143,35.5914286 C0.691428571,35.5914286 0,36.2828571 0,37.14 L0,42.5642857 C0,43.4185714 0.692857143,44.11 1.54857143,44.11 L11.39,44.11 C11.6957143,44.7828571 12.0442857,45.4271429 12.4314286,46.0457143 L1.54857143,46.0457143 C0.691428571,46.0457143 0,46.74 0,47.5971429 L0,53.0185714 C0,53.8757143 0.692857143,54.5671429 1.54857143,54.5671429 L32.1442857,54.5671429 C33,54.5671429 33.6942857,53.8757143 33.6942857,53.0185714 L33.6942857,52.9714286 C40.0042857,50.3828571 44.4628571,44.18 44.4628571,36.95 Z M27.14,53 C18.29,53 11.09,45.8014286 11.09,36.95 C11.09,28.1 18.29,20.8985714 27.14,20.8985714 C35.99,20.8985714 43.1914286,28.1 43.1914286,36.95 C43.1914286,45.8014286 35.99,53 27.14,53 Z M14.9228571,42.8485714 C15.0671429,43.1471429 14.9428571,43.5071429 14.6442857,43.6514286 C14.56,43.69 14.47,43.7128571 14.3828571,43.7128571 C14.16,43.7128571 13.9457143,43.5871429 13.8428571,43.3728571 C12.8728571,41.3685714 12.3771429,39.2157143 12.3714286,36.9728571 C12.3714286,36.6414286 12.6385714,36.3714286 12.97,36.3685714 C12.97,36.3685714 12.97,36.3685714 12.9714286,36.3685714 C13.3014286,36.3685714 13.57,36.6371429 13.5714286,36.9685714 C13.5757143,39.0271429 14.03,41.0057143 14.9228571,42.8485714 Z M13.8185714,30.5585714 C14.77,28.5742857 16.1828571,26.7957143 17.9028571,25.4128571 C18.1628571,25.2057143 18.5385714,25.2471429 18.7471429,25.5028571 C18.9557143,25.7642857 18.9128571,26.14 18.6542857,26.3471429 C17.0728571,27.6171429 15.7728571,29.2528571 14.9,31.0771429 C14.7971429,31.2914286 14.5828571,31.4171429 14.3585714,31.4171429 C14.2714286,31.4171429 14.1828571,31.3971429 14.1,31.3585714 C13.8014286,31.2171429 13.6742857,30.8571429 13.8185714,30.5585714 Z M35.5657143,26.3028571 C35.3028571,26.0942857 35.2614286,25.72 35.4685714,25.46 C35.6757143,25.2 36.0514286,25.1542857 36.3114286,25.3628571 C38.04,26.7328571 39.4642857,28.5042857 40.4271429,30.48 C40.5728571,30.7828571 40.45,31.14 40.1514286,31.2828571 C40.0657143,31.3271429 39.9785714,31.3442857 39.8885714,31.3442857 C39.6657143,31.3442857 39.4514286,31.2214286 39.3485714,31.0114286 C38.4628571,29.1885714 37.1542857,27.5585714 35.5657143,26.3028571 Z M23.3628571,23.2671429 C23.2885714,22.9442857 23.49,22.6228571 23.8128571,22.5471429 C25.9542857,22.0542857 28.24,22.0471429 30.3828571,22.5285714 C30.7085714,22.6028571 30.91,22.92 30.8357143,23.2442857 C30.7642857,23.5685714 30.4442857,23.7742857 30.1185714,23.6985714 C28.15,23.2528571 26.0471429,23.2628571 24.0814286,23.7171429 C24.0357143,23.7271429 23.9914286,23.7328571 23.9457143,23.7328571 C23.6742857,23.7328571 23.4271429,23.5428571 23.3628571,23.2671429 Z M41.91,36.8814286 L41.91,36.94 C41.91,39.1828571 41.42,41.3371429 40.4514286,43.3457143 C40.3485714,43.5571429 40.1328571,43.6828571 39.91,43.6828571 C39.8214286,43.6828571 39.7342857,43.6628571 39.6485714,43.6214286 C39.35,43.4757143 39.2257143,43.1185714 39.3714286,42.8185714 C40.2585714,40.9771429 40.71,38.9985714 40.71,36.9371429 C40.71,36.6057143 40.9785714,36.31 41.31,36.31 C41.6414286,36.31 41.91,36.5485714 41.91,36.8814286 Z M24.5885714,50.89 C24.5257143,51.1657143 24.2785714,51.3557143 24.0028571,51.3557143 C23.96,51.3557143 23.9142857,51.3528571 23.87,51.3414286 C21.7257143,50.8528571 19.6771429,49.8742857 17.9485714,48.4957143 C17.69,48.2885714 17.6471429,47.9128571 17.8528571,47.65 C18.0585714,47.3928571 18.4357143,47.3514286 18.6957143,47.5585714 C20.2828571,48.8257143 22.1642857,49.7271429 24.1342857,50.1728571 C24.4585714,50.2457143 24.6614286,50.57 24.5885714,50.89 Z M36.4514286,47.6371429 C36.66,47.8985714 36.6142857,48.2728571 36.3585714,48.48 C34.6328571,49.8614286 32.5842857,50.8485714 30.4414286,51.3371429 C30.3942857,51.3485714 30.3528571,51.3557143 30.3057143,51.3557143 C30.0342857,51.3557143 29.7857143,51.1642857 29.7214286,50.8871429 C29.6471429,50.5642857 29.85,50.2428571 30.1714286,50.17 C32.1414286,49.7228571 34.02,48.8114286 35.6057143,47.5442857 C35.8642857,47.3357143 36.2428571,47.3771429 36.4514286,47.6371429 Z M27.3085714,35.8428571 L26.0671429,35.8428571 L26.0671429,33.0842857 L27.3085714,33.0842857 C28.0314286,33.0842857 28.5342857,33.1271429 28.8171429,33.2185714 C29.0971429,33.3085714 29.3142857,33.4628571 29.4628571,33.6685714 C29.6114286,33.88 29.6857143,34.1314286 29.6857143,34.43 C29.6857143,34.7171429 29.6057143,34.9714286 29.45,35.1885714 C29.2928571,35.4028571 29.06,35.5714286 28.7485714,35.68 C28.4357143,35.79 27.9557143,35.8428571 27.3085714,35.8428571 Z M29.6685714,38.21 C29.8242857,38.4442857 29.9028571,38.7228571 29.9028571,39.0642857 C29.9028571,39.4571429 29.7914286,39.7957143 29.5757143,40.0771429 C29.3542857,40.3585714 29.0828571,40.5428571 28.7714286,40.6328571 C28.4528571,40.7214286 28.0571429,40.7714286 27.58,40.7714286 L26.7542857,40.7714286 C26.48,40.7714286 26.3114286,40.7528571 26.2485714,40.7257143 C26.1871429,40.6957143 26.1414286,40.6428571 26.1157143,40.5671429 C26.0928571,40.5114286 26.0814286,40.3057143 26.0757143,39.9585714 L26.0757143,37.5114286 L27.54,37.5114286 C28.1814286,37.5114286 28.6614286,37.5728571 28.9728571,37.69 C29.2771429,37.8014286 29.5114286,37.9771429 29.6685714,38.21 Z M27.14,25.4471429 C20.7942857,25.4471429 15.65,30.5928571 15.65,36.9385714 C15.65,43.2828571 20.7942857,48.4285714 27.14,48.4285714 C33.4842857,48.4285714 38.6314286,43.2828571 38.6314286,36.9385714 C38.6314286,30.59 33.4842857,25.4471429 27.14,25.4471429 Z M32.2928571,41.0185714 C31.9328571,41.5242857 31.4214286,41.9114286 30.76,42.1771429 C30.52,42.2742857 30.2371429,42.3528571 29.9128571,42.4142857 L29.9128571,44.4371429 L27.9985714,44.4371429 L27.9985714,42.5728571 C27.9514286,42.5728571 27.9057143,42.5757143 27.8571429,42.5757143 L26.7671429,42.5757143 L26.7671429,44.4371429 L24.8528571,44.4371429 L24.8528571,42.5757143 L21.93,42.5757143 L21.93,41.0071429 L22.3757143,41.0071429 C22.6728571,41.0071429 22.8742857,40.9785714 22.98,40.9285714 C23.0857143,40.8785714 23.16,40.8028571 23.2028571,40.7114286 C23.2457143,40.6171429 23.2671429,40.4042857 23.2671429,40.0757143 L23.2671429,33.7671429 C23.2671429,33.4342857 23.2457143,33.2171429 23.2028571,33.1257143 C23.16,33.0371429 23.0857143,32.9628571 22.98,32.91 C22.8742857,32.8571429 22.6742857,32.8271429 22.3757143,32.8271429 L21.93,32.8271429 L21.93,31.2614286 L24.8528571,31.2614286 L24.8528571,29.3971429 L26.7671429,29.3971429 L26.7671429,31.2614286 L27.9985714,31.2614286 L27.9985714,29.3971429 L29.9128571,29.3971429 L29.9128571,31.3914286 C30.1942857,31.4442857 30.4542857,31.5142857 30.6742857,31.6014286 C31.2357143,31.83 31.6642857,32.1614286 31.9685714,32.5871429 C32.27,33.0185714 32.42,33.4885714 32.42,34.0014286 C32.42,34.3757143 32.3385714,34.73 32.1771429,35.0642857 C32.02,35.3985714 31.79,35.6942857 31.4885714,35.9514286 C31.1885714,36.2114286 30.7914286,36.42 30.2985714,36.5871429 C30.8271429,36.7214286 31.2328571,36.8685714 31.5171429,37.0328571 C31.9214286,37.2571429 32.2428571,37.5771429 32.48,37.9871429 C32.7171429,38.3928571 32.8371429,38.85 32.8371429,39.3514286 C32.8371429,39.9642857 32.6557143,40.5185714 32.2928571,41.0185714 Z M49.5757143,13.6328571 C50.1342857,14.1928571 50.1342857,15.0942857 49.5757143,15.6528571 C49.2971429,15.9314286 48.9314286,16.0714286 48.5657143,16.0714286 C48.2,16.0714286 47.8342857,15.9314286 47.5557143,15.6528571 L44.46,12.5557143 L41.3642857,15.6528571 C41.0857143,15.9314286 40.72,16.0714286 40.3542857,16.0714286 C39.9885714,16.0714286 39.6228571,15.9314286 39.3442857,15.6528571 C38.7857143,15.0942857 38.7857143,14.1928571 39.3442857,13.6328571 L42.44,10.5357143 L39.3442857,7.43857143 C38.7857143,6.88 38.7857143,5.97857143 39.3442857,5.41857143 C39.9028571,4.86 40.8057143,4.86 41.3642857,5.41857143 L44.46,8.51571429 L47.5557143,5.41857143 C48.1142857,4.86 49.0171429,4.86 49.5757143,5.41857143 C50.1342857,5.97857143 50.1342857,6.88 49.5757143,7.43857143 L46.48,10.5357143 L49.5757143,13.6328571 Z M44.4585714,0 C38.65,0 33.9228571,4.72857143 33.9228571,10.5357143 C33.9228571,16.3442857 38.65,21.0714286 44.4585714,21.0714286 C50.2671429,21.0714286 54.9942857,16.3442857 54.9942857,10.5357143 C54.9942857,4.72857143 50.2685714,0 44.4585714,0 Z M44.4585714,18.2142857 C40.2242857,18.2142857 36.78,14.7714286 36.78,10.5357143 C36.78,6.30285714 40.2242857,2.85714286 44.4585714,2.85714286 C48.6928571,2.85714286 52.1371429,6.30285714 52.1371429,10.5357143 C52.1371429,14.7728571 48.6928571,18.2142857 44.4585714,18.2142857 Z" id="Shape"></path>
        </g>
    </g>
</svg>