<?xml version="1.0" encoding="UTF-8"?>
<svg width="60px" height="63px" viewBox="0 0 60 63" version="1.1" xmlns="http://www.w3.org/2000/svg" xmlns:xlink="http://www.w3.org/1999/xlink">
    <!-- Generator: Sketch 48.1 (47250) - http://www.bohemiancoding.com/sketch -->
    <title>apartments</title>
    <desc>Created with Sketch.</desc>
    <defs></defs>
    <g id="BIG_final" stroke="none" stroke-width="1" fill="none" fill-rule="evenodd" transform="translate(-116.000000, -2008.000000)">
        <g id="Group-33" transform="translate(-136.000000, 1661.000000)" fill="#948171" fill-rule="nonzero">
            <g id="apartments" transform="translate(252.000000, 347.000000)">
                <polygon id="Shape" points="11.16272 12.5692214 26.98784 17.3839924 27.77824 14.7763053 10.82464 9.61832061 3.28992 13.9746183 4.64944 16.3349542"></polygon>
                <polygon id="Shape" points="11.16272 17.3783817 26.98784 22.1931527 27.77824 19.5854656 10.82464 14.4274809 3.28992 18.7837786 4.64944 21.1441145"></polygon>
                <polygon id="Shape" points="11.16272 22.187542 26.98784 27.002313 27.77824 24.394626 10.82464 19.2366412 3.28992 23.5929389 4.64944 25.9532748"></polygon>
                <polygon id="Shape" points="11.16272 26.9967023 26.98784 31.8114733 27.77824 29.2037863 10.82464 24.0458015 3.28992 28.4020992 4.64944 30.7624351"></polygon>
                <polygon id="Shape" points="11.16272 31.8058626 26.98784 36.6206336 27.77824 34.0129466 10.82464 28.8549618 3.28992 33.2110992 4.64928 35.5714351"></polygon>
                <polygon id="Shape" points="11.16272 36.6150229 26.98784 41.4297939 27.77824 38.8221069 10.82464 33.6641221 3.28992 38.0202595 4.64928 40.3805954"></polygon>
                <polygon id="Shape" points="11.16272 41.4241832 26.98784 46.2389542 27.77824 43.6312672 10.82464 38.4732824 3.28992 42.8294198 4.64928 45.1897557"></polygon>
                <polygon id="Shape" points="11.16272 46.2333435 26.98784 51.0481145 27.77824 48.4404275 10.82464 43.2824427 3.28992 47.6385802 4.64928 49.998916"></polygon>
                <polygon id="Shape" points="37.01328 12.5692214 52.8384 17.3839924 53.62864 14.7763053 36.67504 9.61832061 29.14048 13.9746183 30.49984 16.3349542"></polygon>
                <polygon id="Shape" points="37.01328 7.76006107 52.8384 12.5748321 53.62864 9.96714504 36.67504 4.80916031 29.14048 9.16545802 30.49984 11.5257939"></polygon>
                <polygon id="Shape" points="37.01328 2.95090076 52.8384 7.76567176 53.62864 5.15798473 36.67504 0 29.14048 4.35629771 30.49984 6.71663359"></polygon>
                <polygon id="Shape" points="37.01328 17.3783817 52.8384 22.1931527 53.62864 19.5854656 36.67504 14.4274809 29.14048 18.7837786 30.49984 21.1441145"></polygon>
                <polygon id="Shape" points="37.01328 22.187542 52.8384 27.002313 53.62864 24.394626 36.67504 19.2366412 29.14048 23.5929389 30.49984 25.9532748"></polygon>
                <polygon id="Shape" points="37.01328 26.9967023 52.8384 31.8114733 53.62864 29.2037863 36.67504 24.0458015 29.14048 28.4020992 30.49984 30.7624351"></polygon>
                <polygon id="Shape" points="37.01328 31.8058626 52.8384 36.6206336 53.62864 34.0129466 36.67504 28.8549618 29.14048 33.2110992 30.49984 35.5714351"></polygon>
                <polygon id="Shape" points="37.01328 36.6150229 52.8384 41.4297939 53.62864 38.8221069 36.67504 33.6641221 29.14048 38.0202595 30.49984 40.3805954"></polygon>
                <polygon id="Shape" points="37.01328 41.4241832 52.8384 46.2389542 53.62864 43.6312672 36.67504 38.4732824 29.14048 42.8294198 30.49984 45.1897557"></polygon>
                <polygon id="Shape" points="37.01328 46.2333435 52.8384 51.0481145 53.62864 48.4404275 36.67504 43.2824427 29.14048 47.6385802 30.49984 49.998916"></polygon>
                <path d="M52.86768,60.2986947 L52.86768,55.7602901 L53.62864,53.2495878 L36.67504,48.0916031 L29.14032,52.4477405 L29.90128,53.7688168 L29.90128,60.2986947 L27.01728,60.2986947 L27.01728,55.7602901 L27.77824,53.2495878 L10.82464,48.0916031 L3.28992,52.4477405 L4.05072,53.7688168 L4.05072,60.2986947 L0.03264,60.2986947 L0.03264,62.9050992 L59.87264,62.9050992 L59.87264,60.2986947 L52.86768,60.2986947 Z M14.73392,60.2986947 L14.73392,54.7579008 L23.04128,56.7554656 L23.04128,60.2986947 L14.73392,60.2986947 Z M40.58464,60.2986947 L40.58464,54.7579008 L48.89184,56.7554656 L48.89184,60.2986947 L40.58464,60.2986947 Z" id="Shape"></path>
            </g>
        </g>
    </g>
</svg>