<?xml version="1.0" encoding="UTF-8"?>
<svg width="68px" height="57px" viewBox="0 0 68 57" version="1.1" xmlns="http://www.w3.org/2000/svg" xmlns:xlink="http://www.w3.org/1999/xlink">
    <!-- Generator: Sketch 48.1 (47250) - http://www.bohemiancoding.com/sketch -->
    <title>currency-value</title>
    <desc>Created with Sketch.</desc>
    <defs></defs>
    <g id="BIG_final" stroke="none" stroke-width="1" fill="none" fill-rule="evenodd" transform="translate(-720.000000, -2148.000000)">
        <g id="Group-33" transform="translate(-136.000000, 1661.000000)" fill="#948171" fill-rule="nonzero">
            <g id="currency-value" transform="translate(856.000000, 487.000000)">
                <path d="M65.34375,42.5614233 L16.29212,42.5614233 L16.29212,2.57787535 C16.29212,1.15422822 15.10263,0 13.6357,0 C12.16894,0 10.97962,1.15422822 10.97962,2.57787535 L10.97962,42.5615882 L2.65625,42.5615882 C1.18949,42.5614233 0,43.7156515 0,45.1392986 C0,46.5627808 1.18949,47.717174 2.65625,47.717174 L10.97962,47.717174 L10.97962,54.4221246 C10.97962,55.8461017 12.16894,57 13.6357,57 C15.10263,57 16.29212,55.8461017 16.29212,54.4221246 L16.29212,47.717174 L65.34375,47.717174 C66.81034,47.717174 68,46.5627808 68,45.1392986 C68,43.7156515 66.81034,42.5614233 65.34375,42.5614233 Z" id="Shape"></path>
                <path d="M22.8490566,37 L30.1509434,37 C30.6199623,37 31,36.6322676 31,36.1788021 L31,19.8211979 C31,19.3677324 30.6199623,19 30.1509434,19 L22.8490566,19 C22.3800377,19 22,19.3677324 22,19.8211979 L22,36.1788021 C22,36.6322676 22.3800377,37 22.8490566,37 Z" id="Shape"></path>
                <path d="M34.8490566,37 L42.1509434,37 C42.6199623,37 43,36.6307596 43,36.1754345 L43,28.9428411 C42.2818679,28.4779511 41.6060189,27.9408292 40.9817925,27.3347736 C38.5049245,24.9293512 37.141,21.7311917 37.141,18.3293644 C37.141,16.0718691 37.7450189,13.9059006 38.8727358,12 L34.8490566,12 C34.3800377,12 34,12.3692404 34,12.8245655 L34,36.1755995 C34,36.6307596 34.3800377,37 34.8490566,37 Z" id="Shape"></path>
                <path d="M45,31.098317 L45,37.1450695 C45,37.6171621 45.3800377,38 45.8490566,38 L53.1509434,38 C53.6199623,38 54,37.6171621 54,37.1450695 L54,31 C52.5336792,31.5579276 50.9707358,31.8467232 49.368566,31.8467232 C47.8569057,31.8465522 46.3848113,31.5895601 45,31.098317 Z" id="Shape"></path>
                <path d="M49.7003649,28.6625176 C51.9296217,28.6625176 54.0532841,28.006 55.8393508,26.7924471 L64.832461,35.4754118 C65.1949626,35.8252471 65.6698824,36 66.1444609,36 C66.6193807,36 67.0943004,35.8250824 67.4566314,35.4754118 C68.1811229,34.7757412 68.1811229,33.6412471 67.4566314,32.9417412 L58.4633506,24.2587765 C59.7204208,22.5339765 60.4000474,20.4837176 60.4000474,18.3311765 C60.4000474,15.5716941 59.2872954,12.9772471 57.2661571,11.0259765 C55.2450187,9.07454118 52.5580716,8 49.7000237,8 C46.8418052,8 44.154858,9.07470588 42.1337197,11.0259765 C40.1129226,12.9774118 39,15.5718588 39,18.3313412 C39,21.0908235 40.1129226,23.6852706 42.1338903,25.6363765 C44.1551992,27.5879765 46.8421464,28.6625176 49.7003649,28.6625176 Z M44.3206705,13.1375059 C45.7578828,11.7501882 47.6681382,10.9861176 49.7003649,10.9861176 C51.7322503,10.9861176 53.642847,11.7501882 55.0795474,13.1375059 C56.5167596,14.5249882 57.3077808,16.3695294 57.3077808,18.3315059 C57.3077808,20.2934824 56.5167596,22.1380235 55.0795474,23.5253412 C53.642847,24.9128235 51.7322503,25.6768941 49.7003649,25.6768941 C47.6681382,25.6768941 45.7578828,24.9128235 44.3206705,23.5253412 C42.8839701,22.1380235 42.0926078,20.2933176 42.0926078,18.3315059 C42.0926078,16.3693647 42.8839701,14.5249882 44.3206705,13.1375059 Z" id="Shape"></path>
                <path d="M48.7228523,22.3073325 L48.7228523,23.7280238 C48.7228523,23.8782121 48.8530302,24 49.0133452,24 L50.0627934,24 C50.2231084,24 50.353108,23.8782121 50.353108,23.7280238 L50.353108,22.3527732 C51.9871086,22.1638266 53,21.271718 53,20.01742 C53,18.35616 51.4676452,17.9451886 50.2364829,17.614908 C49.2831524,17.3591367 48.7043064,17.1700231 48.7043064,16.6997449 C48.7043064,16.3761466 49.0124536,16.1905413 49.5497497,16.1905413 C50.1485682,16.1905413 51.0965489,16.461348 51.9082886,16.8646346 C51.9781923,16.8993834 52.0596873,16.9062329 52.1349409,16.8826772 C52.2098377,16.8596227 52.2715385,16.8090031 52.3059554,16.7423455 L52.8774901,15.6312192 C52.9432924,15.5032501 52.8928261,15.3493864 52.7615782,15.2780512 C52.0809081,14.9075087 51.2270835,14.653241 50.3532864,14.5600207 L50.3532864,13.2719762 C50.3532864,13.1217879 50.2234651,13 50.0629717,13 L49.0135236,13 C48.8532085,13 48.7230306,13.1217879 48.7230306,13.2719762 L48.7230306,14.6174898 C47.2908949,14.8854565 46.4370703,15.7267784 46.4370703,16.873823 C46.4370703,18.4888069 47.9505226,18.877225 49.1670622,19.1892959 C50.1410785,19.439387 50.7324073,19.626496 50.7324073,20.1154851 C50.7324073,20.6534232 50.1009552,20.7336128 49.7245091,20.7336128 C48.9391616,20.7336128 47.836394,20.3391805 47.0432002,19.7743454 C46.9743664,19.7253964 46.8859167,19.7076879 46.8021035,19.7258976 C46.7179337,19.7441073 46.64696,19.7963975 46.6080849,19.8685681 L46.0310222,20.9419385 C45.9680731,21.0590487 46.0033816,21.2013851 46.114657,21.2807393 C46.839552,21.7972936 47.7645286,22.1611536 48.7228523,22.3073325 Z" id="Shape"></path>
            </g>
        </g>
    </g>
</svg>