<?xml version="1.0" encoding="UTF-8"?>
<svg width="60px" height="40px" viewBox="0 0 60 40" version="1.1" xmlns="http://www.w3.org/2000/svg" xmlns:xlink="http://www.w3.org/1999/xlink">
    <!-- Generator: Sketch 48.1 (47250) - http://www.bohemiancoding.com/sketch -->
    <title>money (1)</title>
    <desc>Created with Sketch.</desc>
    <defs></defs>
    <g id="BIG_final" stroke="none" stroke-width="1" fill="none" fill-rule="evenodd" transform="translate(-111.000000, -2152.000000)">
        <g id="Group-33" transform="translate(-136.000000, 1661.000000)" fill="#948171" fill-rule="nonzero">
            <g id="money-(1)" transform="translate(247.000000, 491.000000)">
                <path d="M37.6055597,17.9177832 C37.6055597,17.8839745 37.6119403,17.8512222 37.6119403,17.8174134 C37.6119403,11.6135043 33.7835821,6.36363636 29.1044776,6.36363636 C24.4253731,6.36363636 20.5970149,11.6135043 20.5970149,17.8174134 C20.5970149,17.8512222 20.6012687,17.8839745 20.6033955,17.9177832 L29.1044776,26.3636364 L37.6055597,17.9177832 Z M24.8507463,14.8158287 C24.8507463,12.4914758 26.7649254,10.5897325 29.1044776,10.5897325 C31.4440299,10.5897325 33.358209,12.4914758 33.358209,14.8158287 C33.358209,17.1401815 31.4440299,19.0419248 29.1044776,19.0419248 C26.7649254,19.0419248 24.8507463,17.1401815 24.8507463,14.8158287 Z" id="Shape"></path>
                <ellipse id="Oval" cx="13.4328358" cy="16.8181818" rx="4.47761194" ry="4.09090909"></ellipse>
                <path d="M60,0 L0,0 L0,33.3654824 C1.90178571,33.3654824 3.72857143,33.3654824 5.54142857,33.3654824 L10.6371429,28.4065375 C10.2535714,25.2607982 7.65,22.9387691 4.28571429,22.9387691 L4.28571429,10.4267132 C7.92857143,10.4267132 10.7142857,7.7157678 10.7142857,4.1706853 L49.2857143,4.1706853 C49.2857143,7.7157678 52.0714286,10.4267132 55.7142857,10.4267132 L55.7142857,22.9387691 C54.0353571,22.9387691 52.5546429,23.5341345 51.4285714,24.5027761 L51.4285714,12.5120559 L38.5714286,12.5120559 L42.7275,16.556578 L30,28.9424706 C25.575,24.636238 25.9810714,25.0314105 21.5592857,20.7272632 L6.29892857,35.5769882 L10.8439286,40 L21.5582143,29.5732868 C29.2510714,37.0596669 23.0335714,31.0090452 29.9989286,37.7884941 C31.4357143,36.3902719 32.9721429,34.8950812 34.545,33.3644397 C42.4414286,33.3644397 50.5992857,33.3644397 60,33.3644397 L60,0 Z M49.2857143,29.1947971 C44.2596429,29.1947971 40.9917857,29.1947971 38.8307143,29.1947971 C41.7525,26.352475 44.6667857,23.5153664 47.2725,20.9795897 L51.1339286,24.7373772 C49.9821429,25.8582488 49.2857143,27.4222558 49.2857143,29.1947971 Z" id="Shape"></path>
            </g>
        </g>
    </g>
</svg>