<?xml version="1.0" encoding="UTF-8"?>
<svg width="43px" height="41px" viewBox="0 0 43 41" version="1.1" xmlns="http://www.w3.org/2000/svg" xmlns:xlink="http://www.w3.org/1999/xlink">
    <!-- Generator: Sketch 48.1 (47250) - http://www.bohemiancoding.com/sketch -->
    <title>Shape</title>
    <desc>Created with Sketch.</desc>
    <defs></defs>
    <g id="BIG_final" stroke="none" stroke-width="1" fill="none" fill-rule="evenodd" transform="translate(-310.000000, -444.000000)">
        <path d="M347,447 L351,447 L351,481 L347,481 L347,447 Z M339.088877,448.261786 L338.492437,448.444085 C337.745734,448.676265 336.868127,448.352935 336.56622,447.737566 C336.421488,447.439631 336.414574,447.110406 336.547322,446.809296 C336.701271,446.461025 337.02853,446.188485 337.443826,446.061058 L344.169223,444 L344.98783,449.895668 C345.033923,450.19587 344.94819,450.502421 344.745843,450.756369 C344.498325,451.068362 344.100544,451.270613 343.654366,451.312333 C343.600899,451.317775 343.540978,451.320496 343.483362,451.320496 C342.72237,451.320496 342.07615,450.843437 341.980277,450.212195 L341.876568,449.320204 C334.103944,459.908462 316.205659,471.25675 315.428996,471.745599 C315.165345,471.911572 314.85007,472 314.516359,472 C314.066493,472 313.643362,471.836748 313.356204,471.550603 C313.092092,471.288946 312.968563,470.955187 313.00682,470.612357 C313.046921,470.256377 313.264018,469.928966 313.603261,469.716738 C313.785327,469.601555 331.513069,458.326731 339.088877,448.261786 Z M344,455 L344,481 L340,481 L340,455 L344,455 Z M336,462 L336,481 L332,481 L332,462 L336,462 Z M329,471 L329,481 L325,481 L325,471 L329,471 Z M321,475 L321,481 L317,481 L317,475 L321,475 Z M352.999546,485 L310,485 L310,482 L353,482 L352.999546,485 Z" id="Shape" fill="#948171" fill-rule="nonzero"></path>
    </g>
</svg>