<?xml version="1.0" encoding="UTF-8"?>
<svg width="76px" height="76px" viewBox="0 0 76 76" version="1.1" xmlns="http://www.w3.org/2000/svg" xmlns:xlink="http://www.w3.org/1999/xlink">
    <!-- Generator: Sketch 48.1 (47250) - http://www.bohemiancoding.com/sketch -->
    <title>Group 66</title>
    <desc>Created with Sketch.</desc>
    <defs></defs>
    <g id="BIG_final" stroke="none" stroke-width="1" fill="none" fill-rule="evenodd" transform="translate(-682.000000, -678.000000)">
        <g id="Group-66" transform="translate(685.000000, 681.000000)">
            <g id="Group-6" stroke="#4D697B">
                <g id="Group-11-Copy">
                    <g id="Group-10">
                        <g id="Group-20-Copy">
                            <g id="Group-19">
                                <circle id="Oval-6" stroke-width="1.248" cx="35" cy="35" r="29.4736842"></circle>
                                <circle id="Oval-6" stroke-width="4.368" opacity="0.463711504" cx="35" cy="35" r="35"></circle>
                            </g>
                        </g>
                    </g>
                </g>
            </g>
            <path d="M50.9233422,34.1056409 L38.6310273,27.0086492 C38.3785864,26.8629352 38.0560318,26.9494562 37.9103705,27.2017388 C37.7646565,27.4540742 37.8511248,27.7767342 38.1034601,27.9223955 L48.6923661,34.0359493 L18.5896929,34.0359493 C18.2983703,34.0359493 18.0621257,34.2721411 18.0621257,34.5635165 C18.0621257,34.8548918 18.2983703,35.0910836 18.5896929,35.0910836 L48.688937,35.0910836 L38.1034601,41.2025799 C37.8511248,41.3483467 37.7646565,41.670954 37.9103705,41.9232366 C38.0081287,42.0924802 38.1853913,42.1871257 38.3677713,42.1871257 C38.4572467,42.1871257 38.5479882,42.1642821 38.6310273,42.1163262 L50.9233422,35.01944 C51.0865714,34.9251638 51.1871257,34.7509611 51.1871257,34.5625141 C51.1871257,34.3740143 51.0865714,34.1998644 50.9233422,34.1056409 Z" id="Shape" fill="#4D697B" fill-rule="nonzero" transform="translate(34.624626, 34.562500) rotate(-270.000000) translate(-34.624626, -34.562500) "></path>
        </g>
    </g>
</svg>