<?xml version="1.0" encoding="UTF-8"?>
<svg width="54px" height="50px" viewBox="0 0 54 50" version="1.1" xmlns="http://www.w3.org/2000/svg" xmlns:xlink="http://www.w3.org/1999/xlink">
    <!-- Generator: Sketch 48.1 (47250) - http://www.bohemiancoding.com/sketch -->
    <title>sunbed</title>
    <desc>Created with Sketch.</desc>
    <defs></defs>
    <g id="BIG_final" stroke="none" stroke-width="1" fill="none" fill-rule="evenodd" transform="translate(-157.000000, -435.000000)">
        <g id="sunbed" transform="translate(157.000000, 435.000000)" fill="#948171" fill-rule="nonzero">
            <path d="M3.6333,43.75 L28.8333,43.75 C30.0483,43.75 31.1922,43.4160714 32.1408,42.7839286 L47.5497,27.5214286 C48.2265,26.8491071 48.6,25.9526786 48.6,24.9964286 C48.6,24.0410714 48.2265,23.14375 47.5488,22.4714286 C46.8711,21.7991071 45.9666,21.4285714 45.0036,21.4285714 C44.0397,21.4285714 43.1361,21.7991071 42.4584,22.4714286 L30.5631,34.2723214 L41.9634,12.0125 C41.9733,11.99375 41.9715,11.9732143 41.9796,11.9544643 C42.5367,11.3383929 43.5492,11.1669643 44.3322,11.6169643 C44.7777,11.8723214 45.1008,12.2758929 45.2394,12.7535714 C45.3735,13.21875 45.3177,13.6991071 45.0801,14.1071429 C44.9982,14.2473214 44.9595,14.4008929 44.9595,14.5517857 C44.9595,14.8607143 45.1206,15.1616071 45.4095,15.3267857 C45.8388,15.5723214 46.3896,15.4267857 46.6389,15 C47.1195,14.175 48.3003,13.8875 49.1877,14.3982143 C50.112,14.9276786 50.4621,16.0508929 49.968,16.9035714 C49.9671,16.9044643 49.9671,16.9053571 49.9662,16.90625 C49.7178,17.3339286 49.8654,17.8794643 50.2956,18.1258929 C50.4369,18.2071429 50.5917,18.2455357 50.7447,18.2455357 C51.0561,18.2455357 51.3585,18.0857143 51.525,17.7991071 C54.8055,12.1625 52.7526,5.1 46.8531,1.71964286 C44.8893,0.594642857 42.6951,0 40.5081,0 C36.3231,0 32.5746,2.14732143 30.4812,5.74553571 C30.2328,6.17321429 30.3804,6.71875 30.8106,6.96517857 C31.2417,7.21160714 31.7907,7.06428571 32.04,6.63839286 C32.04,6.6375 32.0409,6.63571429 32.0418,6.63482143 C32.5179,5.81964286 33.7266,5.54107143 34.6185,6.05357143 C35.0649,6.30892857 35.3871,6.7125 35.5257,7.19017857 C35.6607,7.65535714 35.6049,8.1375 35.3682,8.54464286 C35.2863,8.68482143 35.2476,8.83839286 35.2476,8.99017857 C35.2476,9.29910714 35.4087,9.59910714 35.6976,9.76428571 C36.1269,10.0098214 36.6777,9.86428571 36.927,9.4375 C37.4076,8.6125 38.5866,8.32589286 39.4767,8.83571429 C39.9222,9.09107143 40.2444,9.49464286 40.383,9.97232143 C40.518,10.4375 40.4622,10.91875 40.2255,11.3258929 C40.1607,11.4366071 40.1301,11.55625 40.1175,11.6767857 L27.3474,36.6071429 L3.6333,36.6071429 C1.6479,36.6071429 0.0333,38.2089286 0.0333,40.1785714 C0.0333,42.1482143 1.6479,43.75 3.6333,43.75 Z" id="Shape"></path>
            <path d="M52.5258,47.275 L49.8726,44.6428571 L42.2226,37.0535714 L53.7363,25.63125 C54.0882,25.2821429 54.0882,24.7178571 53.7363,24.36875 C53.3844,24.0196429 52.8156,24.0196429 52.4637,24.36875 L32.0274,44.6428571 L0.9,44.6428571 L0,44.6428571 L0,49.1071429 L51.7617,49.1071429 C51.7815,49.1071429 51.7995,49.1 51.8193,49.0982143 L52.4646,49.7383929 C52.6392,49.9125 52.8696,50 53.1,50 C53.3304,50 53.5608,49.9125 53.7363,49.7383929 C54.0882,49.3892857 54.0882,48.825 53.7363,48.4758929 L52.5258,47.275 Z M34.5726,44.6428571 L40.95,38.3160714 L47.3274,44.6428571 L34.5726,44.6428571 Z" id="Shape"></path>
            <path d="M6.3,10.7142857 L8.1621,10.7142857 C8.3268,12.0160714 8.8452,13.2071429 9.6192,14.1946429 L8.2989,15.5035714 C7.947,15.8526786 7.947,16.4169643 8.2989,16.7660714 C8.4744,16.9401786 8.7048,17.0276786 8.9352,17.0276786 C9.1656,17.0276786 9.396,16.9401786 9.5715,16.7660714 L10.8918,15.4571429 C11.8872,16.225 13.0878,16.7392857 14.3991,16.9026786 L14.3991,18.75 C14.3991,19.24375 14.8023,19.6428571 15.2991,19.6428571 C15.7959,19.6428571 16.1991,19.24375 16.1991,18.75 L16.1991,16.9026786 C17.5104,16.7392857 18.711,16.225 19.7064,15.4571429 L21.0267,16.7660714 C21.2022,16.9401786 21.4326,17.0276786 21.663,17.0276786 C21.8934,17.0276786 22.1238,16.9401786 22.2993,16.7660714 C22.6512,16.4169643 22.6512,15.8526786 22.2993,15.5035714 L20.979,14.1946429 C21.753,13.2071429 22.2714,12.0160714 22.4361,10.7142857 L24.3,10.7142857 C24.7968,10.7142857 25.2,10.3151786 25.2,9.82142857 C25.2,9.32767857 24.7968,8.92857143 24.3,8.92857143 L22.4379,8.92857143 C22.2732,7.62678571 21.7548,6.43571429 20.9808,5.44821429 L22.3011,4.13928571 C22.653,3.79017857 22.653,3.22589286 22.3011,2.87678571 C21.9492,2.52767857 21.3804,2.52767857 21.0285,2.87678571 L19.7082,4.18571429 C18.7128,3.41785714 17.5122,2.90357143 16.2009,2.74017857 L16.2009,0.892857143 C16.2009,0.399107143 15.7977,0 15.3009,0 C14.8041,0 14.4009,0.399107143 14.4009,0.892857143 L14.4009,2.74017857 C13.0896,2.90357143 11.889,3.41785714 10.8936,4.18571429 L9.5733,2.87678571 C9.2214,2.52767857 8.6526,2.52767857 8.3007,2.87678571 C7.9488,3.22589286 7.9488,3.79017857 8.3007,4.13928571 L9.621,5.44821429 C8.8452,6.43571429 8.3268,7.62678571 8.1621,8.92857143 L6.3,8.92857143 C5.8032,8.92857143 5.4,9.32767857 5.4,9.82142857 C5.4,10.3151786 5.8032,10.7142857 6.3,10.7142857 Z" id="Shape"></path>
        </g>
    </g>
</svg>