<?xml version="1.0" encoding="UTF-8"?>
<svg width="21px" height="30px" viewBox="0 0 21 30" version="1.1" xmlns="http://www.w3.org/2000/svg" xmlns:xlink="http://www.w3.org/1999/xlink">
    <!-- Generator: Sketch 48.1 (47250) - http://www.bohemiancoding.com/sketch -->
    <title>Group 38</title>
    <desc>Created with Sketch.</desc>
    <defs></defs>
    <g id="BIG_final" stroke="none" stroke-width="1" fill="none" fill-rule="evenodd" transform="translate(-1129.000000, -3527.000000)">
        <g id="Group-47" transform="translate(-589.000000, 3396.000000)">
            <g id="Group-18" transform="translate(707.000000, 0.000000)">
                <g id="Group-39" transform="translate(1011.000000, 131.000000)">
                    <g id="Group-38">
                        <g id="vietnam" transform="translate(3.000000, 3.000000)" fill-rule="nonzero">
                            <circle id="Oval" fill="#FFFFFF" cx="7.49525316" cy="7.49528481" r="7.49462025"></circle>
                            <path d="M14.5614873,4.99601266 C14.5606646,4.99363924 14.5599367,4.99164557 14.5591139,4.98949367 C13.5998734,2.28487342 11.1325633,0.294968354 8.16813291,0.0308227848 C9.31522152,0.659683544 9.65022152,2.65208861 9.94373418,4.9960443 C10.1442089,6.59708861 10.1455063,8.36120253 9.94753165,9.96424051 C9.65651899,12.3208861 9.32009494,14.3273418 8.16813291,14.9588291 C11.138038,14.6942089 13.6088924,12.6974367 14.5643671,9.98553797 C14.5668671,9.97832278 14.5689873,9.97123418 14.5715823,9.96424051 C14.8413924,9.19088608 14.9899051,8.36037975 14.9899051,7.49506329 C14.9897785,6.61838608 14.837943,5.77768987 14.5614873,4.99601266 Z" id="Shape" fill="#E12A28"></path>
                            <path d="M10.3294937,4.99601266 C10.0361392,2.65202532 9.31518987,0.659651899 8.16800633,0.0307911392 C7.94610759,0.0111392405 7.72174051,0 7.49477848,0 C4.23436709,0 1.46164557,2.08237342 0.430632911,4.98949367 C0.429810127,4.99161392 0.429082278,4.99363924 0.428259494,4.99601266 C0.151835443,5.77768987 0,6.61838608 0,7.495 C0,8.36044304 0.148512658,9.19082278 0.418322785,9.96417722 C0.420822785,9.97117089 0.42306962,9.97825949 0.425537975,9.98547468 C1.4525,12.9000949 4.22901899,14.9897468 7.49474684,14.9897468 C7.72174051,14.9897468 7.94610759,14.9786076 8.16797468,14.9587342 C9.31990506,14.3272785 10.0422468,12.3207911 10.3332595,9.96414557 C10.5312658,8.3610443 10.5299684,6.59705696 10.3294937,4.99601266 Z" id="Shape" fill="#ED3432"></path>
                            <polygon id="Shape" fill="#FDCE0C" points="7.42778481 3.65360759 8.31806962 6.39389241 11.199557 6.39389241 8.86835443 8.08718354 9.75873418 10.8277532 7.42778481 9.13405063 5.09670886 10.8277532 5.98712025 8.08718354 3.65601266 6.39389241 6.53740506 6.39389241"></polygon>
                        </g>
                        <g id="Group-37-Copy-5">
                            <g id="Group-36" fill="#948171" fill-rule="nonzero">
                                <g id="location-pin">
                                    <path d="M10.5,0 C4.71031684,0 0,4.56735601 0,10.1813939 C0,12.437396 1.36975676,15.8683597 4.31073103,20.978738 C6.31759713,24.4657249 8.31521153,27.4110321 8.39948392,27.535101 L9.84331731,29.6572088 C9.98889015,29.8712321 10.2355395,30 10.5,30 C10.7644605,30 11.0111098,29.8712321 11.1566827,29.6572088 L12.6004531,27.535223 C12.6839074,27.4125578 14.6669833,24.4926991 16.689269,20.978738 C19.6302432,15.8686038 21,12.4376401 21,10.1813939 C21,4.56735601 16.2896832,0 10.5,0 Z M15.5233046,20.6391787 C13.4430363,24.284087 11.4070193,27.307483 11.3212086,27.4345332 L10.5,28.6516854 L9.67905399,27.4348542 C9.59278375,27.3067768 7.54114093,24.2562887 5.47669544,20.6391787 C2.63089371,15.6524434 1.18793535,12.0940114 1.18793535,10.0628136 C1.18793535,5.04198854 5.36527947,0.957251683 10.5,0.957251683 C15.6347205,0.957251683 19.8120647,5.04198854 19.8120647,10.0628136 C19.8120647,12.0942682 18.3691063,15.6525718 15.5233046,20.6391787 Z" id="Shape"></path>
                                </g>
                            </g>
                            <circle id="Oval-3" stroke="#948171" cx="10.5" cy="10.5" r="7.5"></circle>
                        </g>
                    </g>
                </g>
            </g>
        </g>
    </g>
</svg>