<?xml version="1.0" encoding="UTF-8"?>
<svg width="44px" height="43px" viewBox="0 0 44 43" version="1.1" xmlns="http://www.w3.org/2000/svg" xmlns:xlink="http://www.w3.org/1999/xlink">
    <!-- Generator: Sketch 48.1 (47250) - http://www.bohemiancoding.com/sketch -->
    <title>Group 64</title>
    <desc>Created with Sketch.</desc>
    <defs></defs>
    <g id="BIG_final" stroke="none" stroke-width="1" fill="none" fill-rule="evenodd" transform="translate(-1049.000000, -21.000000)">
        <g id="Group-11" transform="translate(946.000000, 22.000000)">
            <g id="Group-64" transform="translate(104.000000, 0.000000)">
                <g id="Group-8-Copy-2" transform="translate(0.544000, 0.000000)" stroke="#948171" stroke-width="1.584">
                    <ellipse id="Oval-8" cx="20.592" cy="20.5" rx="20.592" ry="20.5"></ellipse>
                </g>
                <g id="bitcoin-sign" transform="translate(11.632000, 7.884615)" fill="#948171" fill-rule="nonzero">
                    <path d="M18.3845652,14.424506 C17.9706947,13.7409315 17.4103545,13.2056457 16.7035448,12.8258821 C16.2160639,12.5546224 15.5077518,12.3036168 14.58612,12.0786521 C15.4469106,11.796542 16.1371956,11.4406493 16.6644862,11.0095272 C17.1872701,10.5784051 17.5891226,10.0821807 17.8692927,9.51796048 C18.1472094,8.95591037 18.28767,8.36058574 18.28767,7.73488003 C18.28767,6.87335921 18.0240247,6.08200423 17.4982363,5.36009174 C16.9701946,4.63817925 16.2175661,4.08553282 15.2380975,3.69998236 C14.6702461,3.47646436 13.9656897,3.32528229 13.1514689,3.23124559 L13.1514689,0 L10.3918312,0 L10.3918312,3.12201835 L8.61767107,3.12201835 L8.61767107,0 L5.85803335,0 L5.85803335,3.12201835 L0,3.12201835 L0,5.749259 L0.77591338,5.749259 C1.29268822,5.749259 1.64421528,5.79483063 1.82899233,5.88525053 C2.011516,5.97567043 2.14146084,6.0986415 2.21657346,6.25271701 C2.29393946,6.40679252 2.32924239,6.76485533 2.32924239,7.32762879 L2.32924239,17.9161609 C2.32924239,18.4688073 2.29168608,18.8261468 2.21657346,18.9845625 C2.14146084,19.1444248 2.01301826,19.2659492 1.82899233,19.3520289 C1.64421528,19.4381087 1.29268822,19.4822336 0.77591338,19.4822336 L0,19.4822336 L0,22.1101976 L5.85803335,22.1101976 L5.85803335,25.2307692 L8.61616881,25.2307692 L8.61616881,22.1101976 L10.3302388,22.1101976 C10.3497681,22.1101976 10.3700485,22.1087509 10.3903289,22.1087509 L10.3903289,25.2307692 L13.1499666,25.2307692 L13.1499666,21.953952 C14.0415535,21.8425547 14.7896752,21.6718419 15.3875716,21.4410903 C16.5390481,20.9962244 17.4321372,20.3495413 18.061581,19.5003176 C18.692527,18.6525406 19.008,17.7244707 19.008,16.716108 C19.0064977,15.8741179 18.7984358,15.1102505 18.3845652,14.424506 Z M7.20705603,6.18472124 L9.36804616,6.18472124 C10.6314404,6.18472124 11.5072536,6.2599506 11.9969879,6.40968596 C12.4867222,6.55942131 12.8607831,6.81259704 13.1206727,7.16487297 C13.3790601,7.51931898 13.5097561,7.94537756 13.5097561,8.44594213 C13.5097561,8.92625265 13.3730511,9.35014114 13.0988901,9.71760762 C12.8262312,10.0857975 12.4183697,10.360674 11.8768077,10.5415138 C11.3352457,10.7230769 10.4992422,10.8142202 9.36804616,10.8142202 L7.20705603,10.8142202 L7.20705603,6.18472124 Z M13.312961,17.9161609 C12.9268822,18.3870677 12.4589305,18.6988356 11.9091061,18.8485709 C11.3600329,18.9983063 10.6667434,19.074259 9.82998878,19.074259 L8.39158208,19.074259 C7.9108613,19.074259 7.6186732,19.0489414 7.5097599,18.9990296 C7.40159772,18.9483945 7.32498285,18.860868 7.27691077,18.7335568 C7.23785221,18.6330099 7.21531842,18.2952011 7.20555378,17.7121736 L7.20555378,13.6020466 L9.75637841,13.6020466 C10.8763076,13.6020466 11.7078043,13.7025935 12.2538731,13.9015173 C12.7984396,14.1004411 13.2078034,14.396295 13.4804622,14.7861856 C13.753121,15.1775229 13.889826,15.6534933 13.889826,16.2169901 C13.8913282,16.8774171 13.6975377,17.4438073 13.312961,17.9161609 Z" id="Shape"></path>
                </g>
            </g>
        </g>
    </g>
</svg>