<?xml version="1.0" encoding="UTF-8"?>
<svg width="43px" height="43px" viewBox="0 0 43 43" version="1.1" xmlns="http://www.w3.org/2000/svg" xmlns:xlink="http://www.w3.org/1999/xlink">
    <!-- Generator: Sketch 48.1 (47250) - http://www.bohemiancoding.com/sketch -->
    <title>Group 8</title>
    <desc>Created with Sketch.</desc>
    <defs></defs>
    <g id="BIG_final" stroke="none" stroke-width="1" fill="none" fill-rule="evenodd" transform="translate(-945.000000, -21.000000)">
        <g id="Group-11" transform="translate(946.000000, 22.000000)">
            <g id="Group-8">
                <path d="M33.264,13.4639341 C32.3311985,13.8755267 31.3303159,14.1546641 30.2787038,14.2792842 C31.3524712,13.6389878 32.1744133,12.6233879 32.5639744,11.4169403 C31.5567558,12.0098959 30.4449723,12.4404578 29.2603455,12.6738627 C28.3117246,11.6661392 26.9624029,11.0384615 25.4657793,11.0384615 C22.5945313,11.0384615 20.2664823,13.3567163 20.2664823,16.2143178 C20.2664823,16.6196011 20.312408,17.0154409 20.4011122,17.3939609 C16.0807813,17.1778758 12.2498141,15.1166963 9.68580053,11.9846585 C9.23760027,12.7479667 8.98262762,13.6373795 8.98262762,14.586793 C8.98262762,16.3830621 9.90118347,17.9679885 11.2948573,18.8952574 C10.4428088,18.8668859 9.64144846,18.633481 8.93989061,18.2455176 L8.93989061,18.3101782 C8.93989061,20.8176724 10.7326502,22.9103986 13.1097722,23.386693 C12.674244,23.5033955 12.2149868,23.5680561 11.7398688,23.5680561 C11.4041431,23.5680561 11.0794743,23.5349423 10.7611416,23.4718487 C11.4231097,25.5298942 13.3425896,27.0264896 15.6168032,27.067521 C13.8382892,28.4553315 11.5957557,29.280125 9.16003591,29.280125 C8.7403684,29.280125 8.32699549,29.2548876 7.92,29.2091551 C10.2211313,30.6805543 12.9530285,31.5384615 15.8892102,31.5384615 C25.4531901,31.5384615 30.6810198,23.6500777 30.6810198,16.8088817 L30.6635854,16.1386468 C31.6850497,15.4131535 32.5687367,14.5016374 33.264,13.4639341 Z" id="Shape" fill="#948171" fill-rule="nonzero"></path>
                <ellipse id="Oval-8" stroke="#948171" stroke-width="1.584" cx="20.592" cy="20.5" rx="20.592" ry="20.5"></ellipse>
            </g>
        </g>
    </g>
</svg>