<?xml version="1.0" encoding="UTF-8"?>
<svg width="43px" height="43px" viewBox="0 0 43 43" version="1.1" xmlns="http://www.w3.org/2000/svg" xmlns:xlink="http://www.w3.org/1999/xlink">
    <!-- Generator: Sketch 48.1 (47250) - http://www.bohemiancoding.com/sketch -->
    <title>Group 65</title>
    <desc>Created with Sketch.</desc>
    <defs></defs>
    <g id="BIG_final" stroke="none" stroke-width="1" fill="none" fill-rule="evenodd" transform="translate(-1102.000000, -21.000000)">
        <g id="Group-11" transform="translate(946.000000, 22.000000)">
            <g id="Group-65" transform="translate(156.000000, 0.000000)">
                <g id="Group-8-Copy-3" transform="translate(0.816000, 0.000000)" stroke="#948171" stroke-width="1.584">
                    <ellipse id="Oval-8" cx="20.592" cy="20.5" rx="20.592" ry="20.5"></ellipse>
                </g>
                <g id="telegram" transform="translate(5.568000, 7.884615)" fill="#948171" fill-rule="nonzero">
                    <path d="M0.503606672,12.0980622 L7.07335031,14.5902283 L9.61624388,22.9019886 C9.77895258,23.4343268 10.419428,23.631092 10.8445425,23.277842 L14.5066285,20.2435815 C14.8904956,19.9256854 15.4372614,19.9098437 15.8384258,20.2058126 L22.4435244,25.079736 C22.8982914,25.4156955 23.5425684,25.1624219 23.6566165,24.6039062 L28.4952043,0.948516802 C28.6197068,0.338419087 28.0298878,-0.170543049 27.4583165,0.054138281 L0.495908422,10.6256557 C-0.169467489,10.8864638 -0.163670042,11.8439192 0.503606672,12.0980622 Z M9.28485811,13.3299684 L21.9737627,5.08351654 C22.2018095,4.93574701 22.4364309,5.26111748 22.2405999,5.45279172 L11.7685765,15.7243105 C11.4004895,16.0858553 11.1630504,16.569699 11.0958011,17.0948705 L10.7390788,19.8843549 C10.6918352,20.2568016 10.196012,20.2937687 10.0986131,19.9333141 L8.72666954,14.846613 C8.56953518,14.2664367 8.79852117,13.6467165 9.28485811,13.3299684 Z" id="XMLID_497_"></path>
                </g>
            </g>
        </g>
    </g>
</svg>