<?xml version="1.0" encoding="UTF-8"?>
<svg width="44px" height="43px" viewBox="0 0 44 43" version="1.1" xmlns="http://www.w3.org/2000/svg" xmlns:xlink="http://www.w3.org/1999/xlink">
    <!-- Generator: Sketch 48.1 (47250) - http://www.bohemiancoding.com/sketch -->
    <title>Group 63</title>
    <desc>Created with Sketch.</desc>
    <defs></defs>
    <g id="BIG_final" stroke="none" stroke-width="1" fill="none" fill-rule="evenodd" transform="translate(-997.000000, -21.000000)">
        <g id="Group-11" transform="translate(946.000000, 22.000000)">
            <g id="Group-63" transform="translate(52.000000, 0.000000)">
                <g id="Group-8-Copy" transform="translate(0.272000, 0.000000)" stroke="#948171" stroke-width="1.584">
                    <ellipse id="Oval-8" cx="20.592" cy="20.5" rx="20.592" ry="20.5"></ellipse>
                </g>
                <g id="reddit-big-logo" transform="translate(8.192000, 7.730769)" fill="#948171" fill-rule="nonzero">
                    <path d="M25.344,11.379067 C25.344,9.65426177 23.921555,8.25101979 22.1731462,8.25101979 C21.1976104,8.25101979 20.3001682,8.6810816 19.7017828,9.41858576 C18.022861,8.66508387 16.1084807,8.20079229 14.0834829,8.05377407 L15.8234663,2.62956146 L19.709574,3.46019206 C20.0071813,4.6025549 21.0595424,5.44945134 22.30904,5.44945134 C23.7890133,5.44945134 24.9931224,4.26168713 24.9931224,2.80169343 C24.9931224,1.34169974 23.7890133,0.153846154 22.30904,0.153846154 C21.2399187,0.153846154 20.3160225,0.774182602 19.8847864,1.66871473 L15.400565,0.710191694 C14.9438714,0.612596621 14.4860907,0.874011995 14.345033,1.31399418 L12.1974591,8.00864082 C9.82711,8.06566065 7.57815931,8.54961424 5.64230779,9.41849639 C5.04383179,8.6810816 4.14638958,8.25101979 3.17085377,8.25101979 C1.422445,8.25101979 0,9.65426177 0,11.379067 C0,12.216758 0.333664412,13.0032385 0.926070492,13.587379 C0.572746786,14.3354291 0.393820038,15.1135085 0.393820038,15.9053513 C0.393820038,18.0545879 1.69803749,20.0604705 4.06639347,21.5536215 C6.37178535,23.0071803 9.428126,23.8076923 12.672,23.8076923 C15.9160552,23.8076923 18.9722147,23.0071803 21.2776065,21.5536215 C23.6459625,20.0604705 24.95018,18.0545879 24.95018,15.9053513 C24.95018,15.1135979 24.7712532,14.3355185 24.4179295,13.587379 C25.0103356,13.0031491 25.344,12.216758 25.344,11.379067 Z M1.39236719,12.4512722 C1.19196923,12.1304239 1.08714986,11.7641743 1.08714986,11.379067 C1.08714986,10.2456414 2.02182696,9.32349312 3.17085377,9.32349312 C3.66405742,9.32349312 4.12736446,9.48892214 4.49799196,9.79341519 C3.17329986,10.535388 2.13054194,11.4279539 1.39236719,12.4512722 Z M6.16413973,14.2625009 C6.16413973,13.0304972 7.18017187,12.0281815 8.42903527,12.0281815 C9.67789868,12.0281815 10.6939308,13.0304972 10.6939308,14.2625009 C10.6939308,15.4945047 9.67789868,16.4968204 8.42903527,16.4968204 C7.18017187,16.4968204 6.16413973,15.4945047 6.16413973,14.2625009 Z M17.3182067,19.3615754 C16.4353504,20.3122336 14.6550519,20.9027195 12.672,20.9027195 C10.6890386,20.9027195 8.90874015,20.3122336 8.02588387,19.3615754 C7.86235841,19.185511 7.77828549,18.9571636 7.7887946,18.7188064 C7.79930372,18.4802704 7.90348891,18.2600559 8.08187208,18.0988274 C8.24938376,17.9474299 8.46663254,17.8640451 8.69375627,17.8640451 C8.94715278,17.8640451 9.19058375,17.9697731 9.36171926,18.1539704 C9.88744682,18.7199682 11.2485584,19.115264 12.672,19.115264 C14.0954416,19.115264 15.4566438,18.7199682 15.9822807,18.1539704 C16.1534162,17.9696837 16.3968472,17.8640451 16.6503343,17.8640451 C16.8775487,17.8640451 17.0947974,17.9474299 17.2623091,18.0988274 C17.4407829,18.2600559 17.5447869,18.4802704 17.555296,18.7188064 C17.5658957,18.9571636 17.4817322,19.185511 17.3182067,19.3615754 Z M16.9149647,16.4968204 C15.6661013,16.4968204 14.6500692,15.4945047 14.6500692,14.2625009 C14.6500692,13.0304972 15.6661013,12.0281815 16.9149647,12.0281815 C18.1638281,12.0281815 19.1798603,13.0304972 19.1798603,14.2625009 C19.1798603,15.4945047 18.1638281,16.4968204 16.9149647,16.4968204 Z M23.9516328,12.4512722 C23.2135487,11.4279539 22.1707907,10.5354774 20.846008,9.79341519 C21.2167261,9.48883276 21.6799426,9.32349312 22.1731462,9.32349312 C23.322173,9.32349312 24.2568501,10.2456414 24.2568501,11.379067 C24.2568501,11.7641743 24.1520308,12.1304239 23.9516328,12.4512722 Z" id="Shape"></path>
                </g>
            </g>
        </g>
    </g>
</svg>