<?xml version="1.0" encoding="UTF-8"?>
<svg width="21px" height="30px" viewBox="0 0 21 30" version="1.1" xmlns="http://www.w3.org/2000/svg" xmlns:xlink="http://www.w3.org/1999/xlink">
    <!-- Generator: Sketch 48.1 (47250) - http://www.bohemiancoding.com/sketch -->
    <title>Group 37</title>
    <desc>Created with Sketch.</desc>
    <defs></defs>
    <g id="BIG_final_2" stroke="none" stroke-width="1" fill="none" fill-rule="evenodd" transform="translate(-143.000000, -3787.000000)">
        <g id="Group-44" transform="translate(143.000000, 3787.000000)">
            <g id="Group-37">
                <g id="Group-36" fill="#FFFFFF" fill-rule="nonzero">
                    <g id="location-pin">
                        <path d="M10.5,0 C4.71031684,0 0,4.56735601 0,10.1813939 C0,12.437396 1.36975676,15.8683597 4.31073103,20.978738 C6.31759713,24.4657249 8.31521153,27.4110321 8.39948392,27.535101 L9.84331731,29.6572088 C9.98889015,29.8712321 10.2355395,30 10.5,30 C10.7644605,30 11.0111098,29.8712321 11.1566827,29.6572088 L12.6004531,27.535223 C12.6839074,27.4125578 14.6669833,24.4926991 16.689269,20.978738 C19.6302432,15.8686038 21,12.4376401 21,10.1813939 C21,4.56735601 16.2896832,0 10.5,0 Z M15.5233046,20.6391787 C13.4430363,24.284087 11.4070193,27.307483 11.3212086,27.4345332 L10.5,28.6516854 L9.67905399,27.4348542 C9.59278375,27.3067768 7.54114093,24.2562887 5.47669544,20.6391787 C2.63089371,15.6524434 1.18793535,12.0940114 1.18793535,10.0628136 C1.18793535,5.04198854 5.36527947,0.957251683 10.5,0.957251683 C15.6347205,0.957251683 19.8120647,5.04198854 19.8120647,10.0628136 C19.8120647,12.0942682 18.3691063,15.6525718 15.5233046,20.6391787 Z" id="Shape"></path>
                    </g>
                </g>
                <g id="thailand" transform="translate(3.000000, 3.000000)" fill-rule="nonzero">
                    <g id="Group" transform="translate(7.484277, 0.000000)" fill="#D32027">
                        <path d="M1.32194969,2.07176101 L5.18503145,2.07176101 C3.83955975,0.78918239 2.01937107,0 0.0135220126,0 C0.980503145,0 0.806477987,0.818050314 1.32194969,2.07176101 Z" id="Shape"></path>
                        <path d="M0.0135220126,14.9958491 C2.01924528,14.9958491 3.83943396,14.2066667 5.18503145,12.9240881 L0.966792453,12.9240881 C0.451446541,14.1777987 0.980628931,14.9958491 0.0135220126,14.9958491 Z" id="Shape"></path>
                    </g>
                    <g id="Group" transform="translate(8.710692, 2.044025)" fill="#EFECEC">
                        <path d="M5.40163522,8.98584906 L0.766194969,8.98584906 C0.626383648,9.68066038 0.442767296,10.3234906 0.213930818,10.8800314 L3.95861635,10.8800314 C4.53408805,10.3314465 5.02327044,9.69298742 5.40163522,8.98584906 Z" id="Shape"></path>
                        <path d="M0.569056604,1.92194969 L5.40160377,1.92194969 C5.02323899,1.21481132 4.5340566,0.576477987 3.95858491,0.0277672956 L0.0167610063,0.0277672956 C0.245534591,0.584150943 0.429150943,1.22713836 0.569056604,1.92194969 Z" id="Shape"></path>
                    </g>
                    <path d="M8.33267296,11.0298742 L14.112327,11.0298742 C14.6755031,9.9772956 14.9957233,8.77518868 14.9957233,7.49792453 C14.9957233,6.22066038 14.6754717,5.01855346 14.112327,3.96597484 L8.33267296,3.96597484 C8.77176101,6.14855346 8.77176101,8.84716981 8.33267296,11.0298742 Z" id="Shape" fill="#163D68"></path>
                    <g id="Group" transform="translate(2.295597, 0.000000)" fill="#E73B36">
                        <path d="M7.42562893,12.9240566 L0.0309433962,12.9240566 C1.37641509,14.2066667 3.19660377,14.9958176 5.20220126,14.9958176 C6.16930818,14.9958491 6.91040881,14.1777987 7.42562893,12.9240566 Z" id="Shape"></path>
                        <path d="M7.42562893,2.07176101 C6.91015723,0.818050314 6.16918239,0 5.20220126,0 C3.19672956,0 1.37654088,0.78918239 0.0309433962,2.07176101 L7.42562893,2.07176101 Z" id="Shape"></path>
                    </g>
                    <g id="Group" transform="translate(0.880503, 2.044025)" fill="#F3F4F5">
                        <path d="M8.84072327,0.0277358491 L1.44603774,0.0277358491 C0.870566038,0.576446541 0.381383648,1.21481132 0.00301886792,1.92191824 L9.39298742,1.92191824 C9.2531761,1.22713836 9.06955975,0.584150943 8.84072327,0.0277358491 Z" id="Shape"></path>
                        <path d="M1.44603774,10.8800314 L8.84072327,10.8800314 C9.06955975,10.3234906 9.2531761,9.68066038 9.39298742,8.98584906 L0.00301886792,8.98584906 C0.381383648,9.69298742 0.870566038,10.3314465 1.44603774,10.8800314 Z" id="Shape"></path>
                    </g>
                    <path d="M10.2734906,3.96597484 L0.883522013,3.96597484 C0.320345912,5.01855346 0.000125786164,6.22062893 0.000125786164,7.49792453 C0.000125786164,8.77522013 0.320377358,9.9772956 0.883522013,11.0298742 L10.2734906,11.0298742 C10.7126101,8.84716981 10.7126101,6.14855346 10.2734906,3.96597484 Z" id="Shape" fill="#14477D"></path>
                </g>
                <circle id="Oval-3" stroke="#FFFFFF" cx="10.5" cy="10.5" r="7.5"></circle>
            </g>
        </g>
    </g>
</svg>